<svg xmlns="http://www.w3.org/2000/svg" viewBox="0 0 290.04 109.09"><defs><style>.cls-1{fill:#00aaa7;}.cls-2{fill:#003e75;}</style></defs><g id="Layer_2" data-name="Layer 2"><g id="Layer_1-2" data-name="Layer 1"><rect class="cls-1" x="0.27" width="289.7" height="14.01"/><path class="cls-2" d="M161.7,61.1l-11,25.18h-3.47l12.2-28-11.35-26h3.7L162,55.46l10.27-23.24h3.4l-11.36,26,12.13,28h-3.79Z"/><path class="cls-2" d="M193.13,32.22q6.26,0,8.92,3.59t2.66,9.54v5.86q0,6.49-3,9.66T192.2,64h-6.72V86.28h-3.55V32.22Zm-.93,28.57q4.71,0,6.84-2.2t2.12-7.14V45.11a12.54,12.54,0,0,0-1.74-7q-1.74-2.62-6.29-2.63h-7.65V60.79Z"/><path class="cls-2" d="M228.5,57.24v3.24H213.75V83h17.76v3.25H210.19V32.22h21.32v3.24H213.75V57.24Z"/><path class="cls-2" d="M248.73,31.75a12.2,12.2,0,0,1,5.29,1,9.86,9.86,0,0,1,3.63,2.85A11.63,11.63,0,0,1,259.73,40a21.34,21.34,0,0,1,.66,5.44V49.9H257V45.19a18.08,18.08,0,0,0-.42-4,9,9,0,0,0-1.43-3.25,7,7,0,0,0-2.55-2.16,9.69,9.69,0,0,0-7.57,0,7,7,0,0,0-2.55,2.16,8.79,8.79,0,0,0-1.42,3.25,17.49,17.49,0,0,0-.43,4V73.3a17.64,17.64,0,0,0,.43,4,8.42,8.42,0,0,0,1.42,3.2A7.14,7.14,0,0,0,245,82.65a9.69,9.69,0,0,0,7.57,0,7.14,7.14,0,0,0,2.55-2.13,8.59,8.59,0,0,0,1.43-3.2,18.23,18.23,0,0,0,.42-4V66.89h3.4v6.18a21.29,21.29,0,0,1-.66,5.44,11.56,11.56,0,0,1-2.08,4.33A10,10,0,0,1,254,85.7a14,14,0,0,1-10.58,0,10,10,0,0,1-3.63-2.86,11.73,11.73,0,0,1-2.09-4.33,21.75,21.75,0,0,1-.65-5.44V45.42a21.81,21.81,0,0,1,.65-5.44,11.8,11.8,0,0,1,2.09-4.33,9.86,9.86,0,0,1,3.63-2.85A12.2,12.2,0,0,1,248.73,31.75Z"/><path class="cls-2" d="M275.53,86.28V35.46h-11V32.22H290v3.24h-11V86.28Z"/><path class="cls-1" d="M0,95.5H8.18v1.74H1.94v2.86H7.47v1.74H1.94v3H8.26v1.74H0Z"/><path class="cls-1" d="M13.8,102.18,9.42,95.5h2.29l3.09,4.89,3.12-4.89h2.22l-4.38,6.64v4.4h-2Z"/><path class="cls-1" d="M21.84,95.5H30v1.74H23.78v2.86h5.53v1.74H23.78v3H30.1v1.74H21.84Z"/><path class="cls-2" d="M37.59,104.47V99.21H36.43V98.5h1.16V95.93h.78V98.5h2.82v.71H38.37v5.18A1.4,1.4,0,0,0,40,106a2.78,2.78,0,0,0,1.19-.28v.72a3,3,0,0,1-1.31.29A2.06,2.06,0,0,1,37.59,104.47Z"/><path class="cls-2" d="M43.47,98.5h.77v2.28a3.81,3.81,0,0,1,3.57-2.41v.85h-.08c-1.86,0-3.49,1.4-3.49,4v3.3h-.77Z"/><path class="cls-2" d="M48.83,102.52a4.13,4.13,0,1,1,4.11,4.2A4.15,4.15,0,0,1,48.83,102.52Zm7.42,0a3.3,3.3,0,1,0-6.59,0,3.3,3.3,0,1,0,6.59,0Z"/><path class="cls-2" d="M59.3,103.41V98.5h.78v4.77A2.46,2.46,0,0,0,62.63,106a2.76,2.76,0,0,0,2.79-2.87V98.5h.77v8h-.77V105a3.15,3.15,0,0,1-2.9,1.68A3.06,3.06,0,0,1,59.3,103.41Z"/><path class="cls-2" d="M69,107.86l.46-.63a5.24,5.24,0,0,0,3.25,1.13,2.89,2.89,0,0,0,3.15-3.12v-1.16a4,4,0,0,1-3.36,1.86,3.82,3.82,0,1,1,0-7.63,4,4,0,0,1,3.36,1.79V98.5h.77v6.79a3.75,3.75,0,0,1-1,2.73,4.11,4.11,0,0,1-2.92,1.07A6.09,6.09,0,0,1,69,107.86Zm6.91-5.75a3.2,3.2,0,0,0-3.33-3.06,3,3,0,0,0-3.1,3.07,3.06,3.06,0,0,0,3.1,3.08A3.22,3.22,0,0,0,75.87,102.11Z"/><path class="cls-2" d="M79.52,95h.77v5a3.16,3.16,0,0,1,2.9-1.68,3.06,3.06,0,0,1,3.22,3.31v4.92h-.77v-4.78A2.45,2.45,0,0,0,83.08,99a2.76,2.76,0,0,0-2.79,2.87v4.65h-.77Z"/><path class="cls-2" d="M97.14,96.26H93.29V95.5h8.51v.76H98v10.28h-.82Z"/><path class="cls-2" d="M102.55,98.5h.78v2.28a3.81,3.81,0,0,1,3.56-2.41v.85h-.08c-1.86,0-3.48,1.4-3.48,4v3.3h-.78Z"/><path class="cls-2" d="M107.91,102.5a4,4,0,0,1,3.82-4.19c2.25,0,3.68,1.83,3.68,4.21a3,3,0,0,1,0,.31h-6.67a3.19,3.19,0,0,0,3.15,3.17,3.6,3.6,0,0,0,2.76-1.26l.54.47a4.23,4.23,0,0,1-3.33,1.51A4,4,0,0,1,107.91,102.5Zm6.67-.36c-.11-1.63-1-3.12-2.89-3.12a3.13,3.13,0,0,0-3,3.12Z"/><path class="cls-2" d="M117,104.17c0-1.67,1.44-2.62,3.52-2.62a9.8,9.8,0,0,1,2.66.35v-.35c0-1.62-1-2.45-2.65-2.45a5.38,5.38,0,0,0-2.52.64l-.28-.68a6.44,6.44,0,0,1,2.85-.69,3.5,3.5,0,0,1,2.54.88,3.09,3.09,0,0,1,.82,2.27v5h-.76V105.2a3.65,3.65,0,0,1-3.07,1.52C118.61,106.72,117,105.87,117,104.17Zm6.2-.65v-.91a10.87,10.87,0,0,0-2.73-.36c-1.7,0-2.65.75-2.65,1.91s1.11,1.84,2.33,1.84C121.79,106,123.2,105,123.2,103.52Z"/><path class="cls-2" d="M127.13,104.47V99.21H126V98.5h1.16V95.93h.78V98.5h2.82v.71h-2.82v5.18a1.4,1.4,0,0,0,1.6,1.56,2.78,2.78,0,0,0,1.19-.28v.72a3,3,0,0,1-1.31.29A2.06,2.06,0,0,1,127.13,104.47Z"/><path class="cls-2" d="M133,98.5h.77v1.43a3,3,0,0,1,2.68-1.62,2.87,2.87,0,0,1,2.71,1.73,3.19,3.19,0,0,1,2.9-1.73,3,3,0,0,1,3.09,3.35v4.88h-.77v-4.78c0-1.73-.9-2.74-2.38-2.74a2.59,2.59,0,0,0-2.54,2.83v4.69h-.77v-4.83c0-1.67-.91-2.69-2.35-2.69a2.71,2.71,0,0,0-2.57,2.88v4.64H133Z"/><path class="cls-2" d="M147.44,102.5a4,4,0,0,1,3.82-4.19c2.25,0,3.69,1.83,3.69,4.21a1.51,1.51,0,0,1,0,.31h-6.67a3.19,3.19,0,0,0,3.15,3.17,3.6,3.6,0,0,0,2.76-1.26l.54.47a4.23,4.23,0,0,1-3.33,1.51A4,4,0,0,1,147.44,102.5Zm6.67-.36c-.11-1.63-1-3.12-2.88-3.12a3.13,3.13,0,0,0-3,3.12Z"/><path class="cls-2" d="M157.2,98.5H158V100a3.14,3.14,0,0,1,2.9-1.68,3.06,3.06,0,0,1,3.21,3.31v4.92h-.77v-4.78A2.45,2.45,0,0,0,160.76,99a2.75,2.75,0,0,0-2.79,2.87v4.65h-.77Z"/><path class="cls-2" d="M167.28,104.47V99.21h-1.17V98.5h1.17V95.93h.77V98.5h2.82v.71h-2.82v5.18a1.41,1.41,0,0,0,1.61,1.56,2.77,2.77,0,0,0,1.18-.28v.72a2.93,2.93,0,0,1-1.31.29A2.06,2.06,0,0,1,167.28,104.47Z"/><path class="cls-1" d="M177.82,95.5H186v1.74h-6.24v2.86h5.53v1.74h-5.53v3h6.32v1.74h-8.26Z"/><path class="cls-1" d="M191.56,100.92,187.7,95.5H190l2.74,4,2.76-4h2.22l-3.85,5.39,4,5.65h-2.29l-2.9-4.18-2.91,4.18h-2.23Z"/><path class="cls-1" d="M199.86,95.5h4.36c2.56,0,4.19,1.47,4.19,3.72,0,2.48-2,3.77-4.42,3.77H201.8v3.55h-1.94Zm4.2,5.74c1.46,0,2.38-.82,2.38-2s-.93-2-2.38-2H201.8v4Z"/><path class="cls-1" d="M210.39,95.5h8.18v1.74h-6.24v2.86h5.53v1.74h-5.53v3h6.32v1.74h-8.26Z"/><path class="cls-1" d="M220.46,101a5.59,5.59,0,0,1,5.69-5.71A5.76,5.76,0,0,1,230.47,97l-1.25,1.43a4.43,4.43,0,0,0-3.09-1.37,3.94,3.94,0,0,0,0,7.85,4.33,4.33,0,0,0,3.17-1.43l1.25,1.26a5.7,5.7,0,0,1-4.48,2A5.55,5.55,0,0,1,220.46,101Z"/><path class="cls-1" d="M235.29,97.3h-3.5V95.5h9v1.8h-3.5v9.24h-2Z"/><path class="cls-2" d="M242.17,104.17c0-1.67,1.43-2.62,3.51-2.62a9.88,9.88,0,0,1,2.67.35v-.35c0-1.62-1-2.45-2.65-2.45a5.34,5.34,0,0,0-2.52.64l-.29-.68a6.49,6.49,0,0,1,2.86-.69,3.5,3.5,0,0,1,2.54.88,3.08,3.08,0,0,1,.81,2.27v5h-.75V105.2a3.67,3.67,0,0,1-3.08,1.52C243.78,106.72,242.17,105.87,242.17,104.17Zm6.19-.65v-.91a10.72,10.72,0,0,0-2.72-.36c-1.7,0-2.65.75-2.65,1.91s1.1,1.84,2.33,1.84C247,106,248.36,105,248.36,103.52Z"/><path class="cls-2" d="M252.3,104.47V99.21h-1.17V98.5h1.17V95.93h.77V98.5h2.83v.71h-2.83v5.18a1.41,1.41,0,0,0,1.61,1.56,2.7,2.7,0,0,0,1.18-.28v.72a2.92,2.92,0,0,1-1.3.29A2.06,2.06,0,0,1,252.3,104.47Z"/><path class="cls-2" d="M258.19,95.34h1V96.4h-1Zm.1,3.16h.77v8h-.77Z"/><path class="cls-2" d="M261.55,102.52a4.13,4.13,0,1,1,4.11,4.2A4.15,4.15,0,0,1,261.55,102.52Zm7.42,0a3.3,3.3,0,1,0-3.28,3.48A3.4,3.4,0,0,0,269,102.52Z"/><path class="cls-2" d="M272.18,98.5H273V100a3.14,3.14,0,0,1,2.9-1.68,3.06,3.06,0,0,1,3.21,3.31v4.92h-.77v-4.78A2.45,2.45,0,0,0,275.75,99a2.75,2.75,0,0,0-2.79,2.87v4.65h-.78Z"/><path class="cls-2" d="M281.15,105.53l.46-.62a4.7,4.7,0,0,0,2.88,1.06c1.09,0,1.94-.6,1.94-1.56s-1-1.3-2.13-1.61c-1.31-.38-2.76-.77-2.76-2.24a2.37,2.37,0,0,1,2.65-2.22,5.46,5.46,0,0,1,2.85.88l-.41.65a4.6,4.6,0,0,0-2.47-.81c-1.1,0-1.83.6-1.83,1.44s1.09,1.23,2.24,1.56,2.65.83,2.65,2.28a2.49,2.49,0,0,1-2.78,2.35A5.52,5.52,0,0,1,281.15,105.53Z"/><path class="cls-1" d="M.49,32.83H38.93V38.3H6.49V56.46h29v5.47h-29V80.54H39.31V86H.49Z"/><path class="cls-1" d="M65.82,65,43.71,32.83H51L68.93,59.42,87,32.83h7L71.9,64.89V86H65.82Z"/><path class="cls-1" d="M101.37,32.83H139.8V38.3H107.37V56.46h29v5.47h-29V80.54h32.81V86H101.37Z"/></g></g></svg>