<svg xmlns="http://www.w3.org/2000/svg" viewBox="0 0 213.18 38.67"><g id="Layer_2" data-name="Layer 2"><g id="Layer_1-2" data-name="Layer 1"><path d="M119,37c0-.59.46-1,1.37-1s1.37.44,1.37,1-.45,1-1.37,1S119,37.58,119,37m1.37-1.66c-.82,0-1.23-.39-1.23-1s.41-1,1.23-1,1.23.39,1.23,1-.41,1-1.23,1m-2.1,1.7c0,.92.75,1.65,2.1,1.65s2.1-.73,2.1-1.65a1.44,1.44,0,0,0-1.09-1.4,1.38,1.38,0,0,0,.93-1.32c0-.9-.71-1.58-1.94-1.58s-1.94.68-1.94,1.58a1.38,1.38,0,0,0,.93,1.32,1.44,1.44,0,0,0-1.09,1.4m-5.13-2.31a1.39,1.39,0,1,1,1.39,1.35,1.27,1.27,0,0,1-1.39-1.35m-.71,0a1.91,1.91,0,0,0,1.94,2,1.75,1.75,0,0,0,1.1-.36l-1.76,2.23h.86l1.22-1.62a3.61,3.61,0,0,0,.85-2.18,2,2,0,0,0-2.09-2,2,2,0,0,0-2.12,2m-2.71-1.88-1.64.85v.69l1.52-.78v5h.7V32.83ZM93.24,37l-.58.33A2.3,2.3,0,0,0,95,38.67c1.36,0,2.14-.69,2.14-1.69,0-.77-.47-1.27-1.59-1.54l-.92-.22c-.76-.18-1-.46-1-.9,0-.6.49-1,1.31-1a1.66,1.66,0,0,1,1.52.74l.57-.34a2.18,2.18,0,0,0-2.08-1.05c-1.27,0-2.06.67-2.06,1.61,0,.78.54,1.27,1.6,1.53l.92.22c.71.17,1,.46,1,.93s-.51,1-1.38,1a1.79,1.79,0,0,1-1.74-1m-2.41-4.17H86.92v5.72h4v-.66H87.63V36h3v-.66h-3V33.5h3.2ZM16.1,13v6.11a15.48,15.48,0,0,1-3.7.46C7.16,19.57,3,16.71,3,10.65,3,5.18,6.38,1.84,11.5,1.84A9.09,9.09,0,0,1,19.05,5.6L18.12.84A24.45,24.45,0,0,0,12,0C3.82,0,0,5.51,0,11.17c0,6.26,4.43,10.26,11,10.26a13,13,0,0,0,5.69-1.2l2.19,1.23V13l1.15-2.19h-5.3Zm24.59-1.89h-6l3-7ZM43,21.16H49L47.17,19,39,.39H35.64l1.17,2.14L29.08,19.05l-1.9,2.11h5.36l-1.39-1.9L34,12.73h7.44l2.8,6.5Zm18.27-4.85V2.59L62.58.39H57l1.35,2.2V18.9L57,21.16H70.61l1.18-3.22a74.23,74.23,0,0,1-10.45,1.5c-.09-.9-.12-1.92-.12-3.13m34.47-5.56c0,5.2-3,8.54-9.57,8.6l-2.43,0c-.09-.9-.12-1.89-.12-3.07V5.24c0-1,0-2.05.08-3h2.47c6.48,0,9.57,3.1,9.57,8.55m3-.22C98.71,4.27,94.37.39,86.42.39h-7l1.36,2.2V18.9l-1.36,2.26h7c8.19,0,12.29-4.52,12.29-10.63m2.34,23H103v-.67H98.42v.67h1.91v5h.72Zm3.38,4.62a.46.46,0,0,0-.49-.48.45.45,0,0,0-.49.48.46.46,0,0,0,.49.5.47.47,0,0,0,.49-.5m7.4-21.81V10.9c3,.06,6.92.24,9.63.54L121,9.3l-9.18.15V5.24c0-1,0-2.14.09-3.19a58.32,58.32,0,0,1,10.26,1.44L121,.39H107.64L109,2.59V18.9l-1.36,2.26h13.67l1.17-3.25A61.38,61.38,0,0,1,112,19.44c-.09-.9-.12-1.92-.12-3.13m13.73,22.24h.71V32.83h-.58l-1.65.85v.69l1.52-.78ZM137.32,10.9h-1.14V5.24c0-1,0-2.17.12-3.22h2.32c4.45,0,6.44,1.32,6.44,4.42,0,4.49-4.64,4.46-7.74,4.46m14.09,10.26-11.53-8.94c5.39-.3,8.16-2.56,8.16-5.9,0-3.82-3.1-5.93-9.48-5.93H132l1.36,2.2V18.9L132,21.16h5.51l-1.35-2.26v-7l10.71,9.24ZM182.66,19l-1.2-16.37,1.23-2.2h-4.24l.12,1.81L171.38,17l-8-16.65H160l1.59,3.16-1.41,15.26-2,2.35h5.57L162.25,19,163,6.32l7.76,15.44h.39L178.78,5.6,179.65,19l-1.5,2.2h6.08Zm22.19-7.85h-6l3-7Zm8.33,10.05L211.32,19,203.16.39h-3.37L201,2.53l-7.73,16.52-1.9,2.11h5.36l-1.39-1.9,2.8-6.53h7.44l2.8,6.5-1.24,1.93Z"/></g></g></svg>