<?xml version="1.0" encoding="UTF-8"?>
<svg width="290px" height="110px" viewBox="0 0 290 110" version="1.1" xmlns="http://www.w3.org/2000/svg" xmlns:xlink="http://www.w3.org/1999/xlink">
    <title>Group</title>
    <g id="Page-1" stroke="none" stroke-width="1" fill="none" fill-rule="evenodd">
        <g id="Group" fill="#FFFFFF" fill-rule="nonzero">
            <rect id="Rectangle" x="0.27" y="0" width="289.7" height="14.01"></rect>
            <polygon id="Path" points="161.7 61.1 150.7 86.28 147.23 86.28 159.43 58.28 148.08 32.28 151.78 32.28 162 55.46 172.27 32.22 175.67 32.22 164.31 58.22 176.44 86.22 172.65 86.22"></polygon>
            <path d="M193.13,32.22 C197.303333,32.22 200.276667,33.4166667 202.05,35.81 C203.823333,38.2033333 204.71,41.3833333 204.71,45.35 L204.71,51.21 C204.71,55.5366667 203.71,58.7566667 201.71,60.87 C199.71,62.9833333 196.54,64.0266667 192.2,64 L185.48,64 L185.48,86.28 L181.93,86.28 L181.93,32.22 L193.13,32.22 Z M192.2,60.79 C195.34,60.79 197.62,60.0566667 199.04,58.59 C200.46,57.1233333 201.166667,54.7433333 201.16,51.45 L201.16,45.11 C201.278066,42.6566134 200.673033,40.2225705 199.42,38.11 C198.26,36.3633333 196.163333,35.4866667 193.13,35.48 L185.48,35.48 L185.48,60.79 L192.2,60.79 Z" id="Shape"></path>
            <polygon id="Path" points="228.5 57.24 228.5 60.48 213.75 60.48 213.75 83 231.51 83 231.51 86.25 210.19 86.25 210.19 32.22 231.51 32.22 231.51 35.46 213.75 35.46 213.75 57.24"></polygon>
            <path d="M248.73,31.75 C250.545799,31.6852533 252.353132,32.0269042 254.02,32.75 C255.438424,33.3994557 256.6825,34.3762099 257.65,35.6 C258.64589,36.9035575 259.354742,38.4030525 259.73,40 C260.182876,41.7774335 260.404704,43.605838 260.39,45.44 L260.39,49.9 L257,49.9 L257,45.19 C257.009201,43.8451959 256.868329,42.5035634 256.58,41.19 C256.323882,40.022455 255.837756,38.9176241 255.15,37.94 C254.486854,37.0246845 253.611922,36.2835655 252.6,35.78 C250.181044,34.753593 247.448956,34.753593 245.03,35.78 C244.018078,36.2835655 243.143146,37.0246845 242.48,37.94 C241.790756,38.9155954 241.307589,40.0214355 241.06,41.19 C240.763287,42.5023552 240.618999,43.8445655 240.63,45.19 L240.63,73.3 C240.620324,74.6453686 240.764596,75.9874276 241.06,77.3 C241.303904,78.4543749 241.787693,79.5446039 242.48,80.5 C243.139841,81.4043066 244.003071,82.1407922 245,82.65 C247.418956,83.676407 250.151044,83.676407 252.57,82.65 C253.575669,82.1504015 254.449322,81.4206446 255.12,80.52 C255.81153,79.5629506 256.298328,78.473611 256.55,77.32 C256.837105,76.0062388 256.977962,74.6647432 256.97,73.32 L256.97,66.89 L260.37,66.89 L260.37,73.07 C260.385262,74.9041935 260.163425,76.7326694 259.71,78.51 C259.327507,80.083055 258.618876,81.5582331 257.63,82.84 C256.659901,84.0636811 255.416707,85.0431673 254,85.7 C250.609092,87.0838737 246.810908,87.0838737 243.42,85.7 C242.003293,85.0431673 240.760099,84.0636811 239.79,82.84 C238.801829,81.5564596 238.090216,80.0821606 237.7,78.51 C237.254903,76.7313129 237.036504,74.9034823 237.05,73.07 L237.05,45.42 C237.037144,43.5865536 237.255534,41.7588032 237.7,39.98 C238.092118,38.4085268 238.803551,36.934602 239.79,35.65 C240.7575,34.4262099 242.001576,33.4494557 243.42,32.8 C245.089049,32.0568108 246.903707,31.6979801 248.73,31.75 L248.73,31.75 Z" id="Path"></path>
            <polygon id="Path" points="275.53 86.28 275.53 35.46 264.53 35.46 264.53 32.22 290 32.22 290 35.46 279 35.46 279 86.28"></polygon>
            <polygon id="Path" points="0 95.5 8.18 95.5 8.18 97.24 1.94 97.24 1.94 100.1 7.47 100.1 7.47 101.84 1.94 101.84 1.94 104.84 8.26 104.84 8.26 106.58 0 106.58"></polygon>
            <polygon id="Path" points="13.8 102.18 9.42 95.5 11.71 95.5 14.8 100.39 17.92 95.5 20.14 95.5 15.76 102.14 15.76 106.54 13.76 106.54"></polygon>
            <polygon id="Path" points="21.84 95.5 30 95.5 30 97.24 23.78 97.24 23.78 100.1 29.31 100.1 29.31 101.84 23.78 101.84 23.78 104.84 30.1 104.84 30.1 106.58 21.84 106.58"></polygon>
            <path d="M37.59,104.47 L37.59,99.21 L36.43,99.21 L36.43,98.5 L37.59,98.5 L37.59,95.93 L38.37,95.93 L38.37,98.5 L41.19,98.5 L41.19,99.21 L38.37,99.21 L38.37,104.39 C38.2943073,104.839658 38.4423428,105.298006 38.7667565,105.618439 C39.0911701,105.938872 39.5513108,106.081238 40,106 C40.4125288,105.99612 40.8190227,105.900474 41.19,105.72 L41.19,106.44 C40.7808269,106.634326 40.3329606,106.733472 39.88,106.73 C39.2584456,106.803269 38.6372894,106.589998 38.1918328,106.150377 C37.7463761,105.710756 37.5249335,105.092467 37.59,104.47 Z" id="Path"></path>
            <path d="M43.47,98.5 L44.24,98.5 L44.24,100.78 C44.8181612,99.3165382 46.2365099,98.3590535 47.81,98.37 L47.81,99.22 L47.73,99.22 C45.87,99.22 44.24,100.62 44.24,103.22 L44.24,106.52 L43.47,106.52 L43.47,98.5 Z" id="Path"></path>
            <path d="M48.83,102.52 C48.8685734,100.245981 50.7384146,98.4311096 53.0125725,98.4603878 C55.2867304,98.489666 57.1092292,100.352074 57.0892466,102.626332 C57.0692639,104.900591 55.2143213,106.730687 52.94,106.720047 C51.8375837,106.709454 50.7846694,106.26069 50.0135958,105.472731 C49.2425222,104.684773 48.8166668,103.622386 48.83,102.52 Z M56.25,102.52 C56.317263,101.299495 55.7043645,100.141787 54.6571663,99.5112858 C53.609968,98.8807845 52.300032,98.8807845 51.2528337,99.5112858 C50.2056355,100.141787 49.592737,101.299495 49.66,102.52 C49.592737,103.740505 50.2056355,104.898213 51.2528337,105.528714 C52.300032,106.159216 53.609968,106.159216 54.6571663,105.528714 C55.7043645,104.898213 56.317263,103.740505 56.25,102.52 L56.25,102.52 Z" id="Shape"></path>
            <path d="M59.3,103.41 L59.3,98.5 L60.08,98.5 L60.08,103.27 C60.00052,103.983764 60.2369203,104.696619 60.72715,105.221453 C61.2173798,105.746287 61.9124803,106.030686 62.63,106 C63.3866536,106.008828 64.1137463,105.706606 64.6412021,105.164026 C65.1686579,104.621446 65.45021,103.886102 65.42,103.13 L65.42,98.5 L66.19,98.5 L66.19,106.5 L65.42,106.5 L65.42,105 C64.8561766,106.070451 63.7290824,106.723389 62.52,106.68 C61.6432904,106.728072 60.7881715,106.397226 60.1721145,105.771603 C59.5560575,105.14598 59.2384263,104.285865 59.3,103.41 L59.3,103.41 Z" id="Path"></path>
            <path d="M69,107.86 L69.46,107.23 C70.3852555,107.961754 71.5303555,108.359896 72.71,108.36 C73.5621138,108.44002 74.405868,108.138236 75.0139431,107.535952 C75.6220182,106.933668 75.9318627,106.092841 75.86,105.24 L75.86,104.08 C75.1303439,105.232281 73.8638571,105.933372 72.5,105.94 C71.0904287,106.012191 69.7559111,105.301257 69.0294566,104.091147 C68.3030021,102.881036 68.3030021,101.368964 69.0294566,100.158853 C69.7559111,98.9487432 71.0904287,98.2378092 72.5,98.31 C73.8503454,98.3012587 75.1139468,98.9744273 75.86,100.1 L75.86,98.5 L76.63,98.5 L76.63,105.29 C76.6773454,106.297449 76.3168869,107.281501 75.63,108.02 C74.8343826,108.745354 73.7859097,109.129555 72.71,109.09 C71.3717803,109.098764 70.067933,108.666491 69,107.86 L69,107.86 Z M75.91,102.11 C75.8342779,100.345991 74.344109,98.9766467 72.58,99.05 C71.7548727,99.0222444 70.9547768,99.3357569 70.3681621,99.9166947 C69.7815475,100.497632 69.4602695,101.294642 69.48,102.12 C69.4745568,102.942003 69.8000655,103.731628 70.3831999,104.311 C70.9663342,104.890372 71.7580499,105.210763 72.58,105.2 C74.3358399,105.239594 75.7995404,103.864872 75.87,102.11 L75.91,102.11 Z" id="Shape"></path>
            <path d="M79.52,95 L80.29,95 L80.29,100 C80.8556259,98.9312818 81.9815243,98.2790372 83.19,98.32 C84.0742173,98.2706198 84.936463,98.6067365 85.5539839,99.2415172 C86.1715047,99.8762979 86.4837303,100.74748 86.41,101.63 L86.41,106.55 L85.64,106.55 L85.64,101.77 C85.7362887,101.047217 85.5056289,100.319105 85.0107274,99.7836057 C84.5158259,99.2481069 83.808118,98.9608763 83.08,99 C82.3233464,98.9911717 81.5962537,99.2933943 81.0687979,99.8359743 C80.5413421,100.378554 80.25979,101.113898 80.29,101.87 L80.29,106.52 L79.52,106.52 L79.52,95 Z" id="Path"></path>
            <polygon id="Path" points="97.14 96.26 93.29 96.26 93.29 95.5 101.8 95.5 101.8 96.26 98 96.26 98 106.54 97.18 106.54"></polygon>
            <path d="M102.55,98.5 L103.33,98.5 L103.33,100.78 C103.906837,99.3199574 105.320153,98.3631902 106.89,98.3699639 L106.89,99.22 L106.81,99.22 C104.95,99.22 103.33,100.62 103.33,103.22 L103.33,106.52 L102.55,106.52 L102.55,98.5 Z" id="Path"></path>
            <path d="M107.91,102.5 C107.858434,101.437168 108.232474,100.397592 108.949374,99.6112548 C109.666273,98.8249173 110.66694,98.3566335 111.73,98.31 C113.98,98.31 115.41,100.14 115.41,102.52 C115.415342,102.623264 115.415342,102.726736 115.41,102.83 L108.74,102.83 C108.750764,104.56849 110.151613,105.978234 111.89,106 C112.950699,106.007121 113.960554,105.5461 114.65,104.74 L115.19,105.21 C114.3661,106.19185 113.141446,106.747174 111.86,106.72 C110.768599,106.708012 109.729497,106.250557 108.983626,105.453703 C108.237756,104.656849 107.849904,103.589811 107.91,102.5 Z M114.58,102.14 C114.47,100.51 113.58,99.02 111.69,99.02 C110.016184,99.089575 108.693907,100.464743 108.69,102.14 L114.58,102.14 Z" id="Shape"></path>
            <path d="M117,104.17 C117,102.5 118.44,101.55 120.52,101.55 C121.418519,101.544171 122.313571,101.661941 123.18,101.9 L123.18,101.55 C123.18,99.93 122.18,99.1 120.53,99.1 C119.650309,99.1040984 118.785043,99.3238485 118.01,99.74 L117.73,99.06 C118.6143,98.6138999 119.58958,98.3777796 120.58,98.37 C121.51005,98.3135431 122.424222,98.6302641 123.12,99.25 C123.689763,99.8642156 123.9857,100.683459 123.94,101.52 L123.94,106.52 L123.18,106.52 L123.18,105.2 C122.472751,106.185246 121.32231,106.754845 120.11,106.72 C118.61,106.72 117,105.87 117,104.17 Z M123.2,103.52 L123.2,102.61 C122.30894,102.374757 121.391581,102.253786 120.47,102.25 C118.77,102.25 117.82,103 117.82,104.16 C117.82,105.32 118.93,106 120.15,106 C121.79,106 123.2,105 123.2,103.52 Z" id="Shape"></path>
            <path d="M127.13,104.47 L127.13,99.21 L126,99.21 L126,98.5 L127.16,98.5 L127.16,95.93 L127.94,95.93 L127.94,98.5 L130.76,98.5 L130.76,99.21 L127.94,99.21 L127.94,104.39 C127.884797,104.825607 128.037163,105.261879 128.351552,105.568408 C128.665941,105.874938 129.10593,106.016211 129.54,105.95 C129.952529,105.94612 130.359023,105.850474 130.73,105.67 L130.73,106.39 C130.320827,106.584326 129.872961,106.683472 129.42,106.68 C128.807929,106.75074 128.196329,106.543791 127.752974,106.115923 C127.309618,105.688056 127.081061,105.084198 127.13,104.47 L127.13,104.47 Z" id="Path"></path>
            <path d="M133,98.5 L133.77,98.5 L133.77,99.93 C134.288255,98.9295929 135.323339,98.3039082 136.45,98.31 C137.621877,98.2790825 138.694762,98.9639871 139.16,100.04 C139.717166,98.9570258 140.842346,98.2857975 142.06,98.31 C142.935698,98.2776567 143.781761,98.6298103 144.375895,99.2739359 C144.970028,99.9180615 145.252831,100.78976 145.15,101.66 L145.15,106.54 L144.38,106.54 L144.38,101.76 C144.38,100.03 143.48,99.02 142,99.02 C141.278136,99.0308234 140.59355,99.3424482 140.111329,99.879726 C139.629108,100.417004 139.39302,101.131169 139.46,101.85 L139.46,106.54 L138.69,106.54 L138.69,101.71 C138.69,100.04 137.78,99.02 136.34,99.02 C135.615406,99.0559935 134.935498,99.3810162 134.452462,99.9223181 C133.969425,100.46362 133.723596,101.175998 133.77,101.9 L133.77,106.54 L133,106.54 L133,98.5 Z" id="Path"></path>
            <path d="M147.44,102.5 C147.388434,101.437168 147.762474,100.397592 148.479374,99.6112548 C149.196273,98.8249173 150.19694,98.3566335 151.26,98.31 C153.51,98.31 154.95,100.14 154.95,102.52 C154.960635,102.62306 154.960635,102.72694 154.95,102.83 L148.28,102.83 C148.290764,104.56849 149.691613,105.978234 151.43,106 C152.490699,106.007121 153.500554,105.5461 154.19,104.74 L154.73,105.21 C153.9061,106.19185 152.681446,106.747174 151.4,106.72 C150.306854,106.710725 149.265134,106.254454 148.517082,105.457288 C147.769031,104.660122 147.379835,103.591528 147.44,102.5 Z M154.11,102.14 C154,100.51 153.11,99.02 151.23,99.02 C149.556184,99.089575 148.233907,100.464743 148.23,102.14 L154.11,102.14 Z" id="Shape"></path>
            <path d="M157.2,98.5 L158,98.5 L158,100 C158.562004,98.9278026 159.690308,98.2741643 160.9,98.32 C161.782527,98.2736242 162.642008,98.6110627 163.257253,99.2454739 C163.872498,99.8798852 164.183419,100.749311 164.11,101.63 L164.11,106.55 L163.34,106.55 L163.34,101.77 C163.437131,101.043557 163.203942,100.311781 162.704417,99.7754705 C162.204893,99.2391597 161.491503,98.9546462 160.76,99 C160.002461,98.9882543 159.273635,99.289559 158.745535,99.832802 C158.217434,100.376045 157.936849,101.113096 157.97,101.87 L157.97,106.52 L157.2,106.52 L157.2,98.5 Z" id="Path"></path>
            <path d="M167.28,104.47 L167.28,99.21 L166.11,99.21 L166.11,98.5 L167.28,98.5 L167.28,95.93 L168.05,95.93 L168.05,98.5 L170.87,98.5 L170.87,99.21 L168.05,99.21 L168.05,104.39 C167.998334,104.826624 168.1533,105.262359 168.469058,105.568312 C168.784817,105.874264 169.225222,106.015411 169.66,105.95 C170.069187,105.944974 170.472178,105.849349 170.84,105.67 L170.84,106.39 C170.431642,106.586691 169.98322,106.68596 169.53,106.68 C168.924463,106.737928 168.324283,106.525266 167.890309,106.099007 C167.456334,105.672748 167.232942,105.076478 167.28,104.47 Z" id="Path"></path>
            <polygon id="Path" points="177.82 95.5 186 95.5 186 97.24 179.76 97.24 179.76 100.1 185.29 100.1 185.29 101.84 179.76 101.84 179.76 104.84 186.08 104.84 186.08 106.58 177.82 106.58"></polygon>
            <polygon id="Path" points="191.56 100.92 187.7 95.5 190 95.5 192.74 99.5 195.5 95.5 197.72 95.5 193.87 100.89 197.87 106.54 195.58 106.54 192.68 102.36 189.77 106.54 187.54 106.54"></polygon>
            <path d="M199.86,95.5 L204.22,95.5 C206.78,95.5 208.41,96.97 208.41,99.22 C208.41,101.7 206.41,102.99 203.99,102.99 L201.8,102.99 L201.8,106.54 L199.86,106.54 L199.86,95.5 Z M204.06,101.24 C205.52,101.24 206.44,100.42 206.44,99.24 C206.44,98.06 205.51,97.24 204.06,97.24 L201.8,97.24 L201.8,101.24 L204.06,101.24 Z" id="Shape"></path>
            <polygon id="Path" points="210.39 95.5 218.57 95.5 218.57 97.24 212.33 97.24 212.33 100.1 217.86 100.1 217.86 101.84 212.33 101.84 212.33 104.84 218.65 104.84 218.65 106.58 210.39 106.58"></polygon>
            <path d="M220.46,101 C220.427097,99.4792516 221.015342,98.0107642 222.089037,96.9332957 C223.162731,95.8558272 224.629146,95.2624329 226.15,95.29 C227.766216,95.2281956 229.333949,95.8487566 230.47,97 L229.22,98.43 C228.411546,97.5828929 227.300585,97.0903306 226.13,97.06 C224.094899,97.2380907 222.533475,98.9421217 222.533475,100.985 C222.533475,103.027878 224.094899,104.731909 226.13,104.91 C227.340068,104.897247 228.489584,104.378695 229.3,103.48 L230.55,104.74 C229.434659,106.048118 227.788519,106.783001 226.07,106.74 C224.554146,106.757281 223.097195,106.153746 222.037603,105.069599 C220.97801,103.985453 220.408004,102.51506 220.46,101 L220.46,101 Z" id="Path"></path>
            <polygon id="Path" points="235.29 97.3 231.79 97.3 231.79 95.5 240.79 95.5 240.79 97.3 237.29 97.3 237.29 106.54 235.29 106.54"></polygon>
            <path d="M242.17,104.17 C242.17,102.5 243.6,101.55 245.68,101.55 C246.581803,101.544265 247.480145,101.662025 248.35,101.9 L248.35,101.55 C248.35,99.93 247.35,99.1 245.7,99.1 C244.820101,99.1024577 243.954443,99.3223073 243.18,99.74 L242.89,99.06 C243.777945,98.6141002 244.756417,98.3780352 245.75,98.37 C246.68005,98.3135431 247.594222,98.6302641 248.29,99.25 C248.857138,99.8652261 249.149557,100.68472 249.1,101.52 L249.1,106.52 L248.35,106.52 L248.35,105.2 C247.638401,106.185461 246.485033,106.754655 245.27,106.72 C243.78,106.72 242.17,105.87 242.17,104.17 Z M248.36,103.52 L248.36,102.61 C247.472496,102.373988 246.558344,102.252998 245.64,102.25 C243.94,102.25 242.99,103 242.99,104.16 C242.99,105.32 244.09,106 245.32,106 C247,106 248.36,105 248.36,103.52 L248.36,103.52 Z" id="Shape"></path>
            <path d="M252.3,104.47 L252.3,99.21 L251.13,99.21 L251.13,98.5 L252.3,98.5 L252.3,95.93 L253.07,95.93 L253.07,98.5 L255.9,98.5 L255.9,99.21 L253.07,99.21 L253.07,104.39 C253.018334,104.826624 253.1733,105.262359 253.489058,105.568312 C253.804817,105.874264 254.245222,106.015411 254.68,105.95 C255.089477,105.947354 255.492988,105.851606 255.86,105.67 L255.86,106.39 C255.454795,106.585528 255.009888,106.684776 254.56,106.68 C253.952821,106.741099 253.349801,106.529848 252.913493,106.103192 C252.477185,105.676537 252.252498,105.078394 252.3,104.47 Z" id="Path"></path>
            <path d="M258.19,95.34 L259.19,95.34 L259.19,96.4 L258.19,96.4 L258.19,95.34 Z M258.29,98.5 L259.06,98.5 L259.06,106.5 L258.29,106.5 L258.29,98.5 Z" id="Shape"></path>
            <path d="M261.55,102.52 C261.588573,100.245981 263.458415,98.4311096 265.732572,98.4603878 C268.00673,98.489666 269.829229,100.352074 269.809247,102.626332 C269.789264,104.900591 267.934321,106.730687 265.66,106.720047 C264.557584,106.709454 263.504669,106.26069 262.733596,105.472731 C261.962522,104.684773 261.536667,103.622386 261.55,102.52 Z M268.97,102.52 C268.87174,100.72159 267.349632,99.3341384 265.549834,99.4024058 C263.750035,99.4706733 262.337403,100.969441 262.375659,102.770127 C262.413915,104.570814 263.888926,106.008233 265.69,106.000035 C267.564054,105.95091 269.044753,104.394162 269,102.52 L268.97,102.52 Z" id="Shape"></path>
            <path d="M272.18,98.5 L273,98.5 L273,100 C273.562004,98.9278026 274.690308,98.2741643 275.9,98.32 C276.782527,98.2736242 277.642008,98.6110627 278.257253,99.2454739 C278.872498,99.8798852 279.183419,100.749311 279.11,101.63 L279.11,106.55 L278.34,106.55 L278.34,101.77 C278.437575,101.041716 278.203123,100.30809 277.701278,99.7713679 C277.199434,99.234646 276.483189,98.9515045 275.75,99 C274.992461,98.9882543 274.263635,99.289559 273.735535,99.832802 C273.207434,100.376045 272.926849,101.113096 272.96,101.87 L272.96,106.52 L272.18,106.52 L272.18,98.5 Z" id="Path"></path>
            <path d="M281.15,105.53 L281.61,104.91 C282.424353,105.575626 283.438438,105.948866 284.49,105.97 C285.58,105.97 286.43,105.37 286.43,104.41 C286.43,103.45 285.43,103.11 284.3,102.8 C282.99,102.42 281.54,102.03 281.54,100.56 C281.576736,99.9061959 281.882346,99.2967282 282.384316,98.87621 C282.886285,98.4556918 283.539874,98.2616043 284.19,98.34 C285.203263,98.3631285 286.190089,98.6678328 287.04,99.22 L286.63,99.87 C285.901663,99.3681477 285.044085,99.0869174 284.16,99.06 C283.06,99.06 282.33,99.66 282.33,100.5 C282.33,101.34 283.42,101.73 284.57,102.06 C285.72,102.39 287.22,102.89 287.22,104.34 C287.185996,105.029222 286.8675,105.673427 286.340501,106.118912 C285.813502,106.564396 285.125266,106.771207 284.44,106.69 C283.246772,106.669144 282.092439,106.262145 281.15,105.53 L281.15,105.53 Z" id="Path"></path>
            <polygon id="Path" points="0.49 32.83 38.93 32.83 38.93 38.3 6.49 38.3 6.49 56.46 35.49 56.46 35.49 61.93 6.49 61.93 6.49 80.54 39.31 80.54 39.31 86 0.49 86"></polygon>
            <polygon id="Path" points="65.82 65 43.71 32.83 51 32.83 68.93 59.42 87 32.83 94 32.83 71.9 64.89 71.9 86 65.82 86"></polygon>
            <polygon id="Path" points="101.37 32.83 139.8 32.83 139.8 38.3 107.37 38.3 107.37 56.46 136.37 56.46 136.37 61.93 107.37 61.93 107.37 80.54 140.18 80.54 140.18 86 101.37 86"></polygon>
        </g>
    </g>
</svg>