<?xml version="1.0" encoding="UTF-8"?>
<svg width="214px" height="39px" viewBox="0 0 214 39" version="1.1" xmlns="http://www.w3.org/2000/svg" xmlns:xlink="http://www.w3.org/1999/xlink">
    <title>Shape</title>
    <g id="Page-1" stroke="none" stroke-width="1" fill="none" fill-rule="evenodd">
        <path d="M119,37 C119,36.41 119.46,36 120.37,36 C121.28,36 121.74,36.44 121.74,37 C121.74,37.56 121.29,38 120.37,38 C119.45,38 119,37.58 119,37 M120.37,35.34 C119.55,35.34 119.14,34.95 119.14,34.34 C119.14,33.73 119.55,33.34 120.37,33.34 C121.19,33.34 121.6,33.73 121.6,34.34 C121.6,34.95 121.19,35.34 120.37,35.34 M118.269996,37.04 C118.269996,37.96 119.02,38.69 120.37,38.69 C121.72,38.69 122.470004,37.96 122.470004,37.04 C122.471462,36.3783324 122.021828,35.8008208 121.38,35.64 C121.941931,35.4462082 122.316634,34.9143714 122.31,34.32 C122.31,33.42 121.6,32.74 120.37,32.74 C119.14,32.74 118.43,33.42 118.43,34.32 C118.423366,34.9143714 118.798069,35.4462082 119.36,35.64 C118.718172,35.8008208 118.268538,36.3783324 118.269996,37.04 M113.14,34.73 C113.123718,34.1644417 113.451863,33.6454509 113.969769,33.4176458 C114.487674,33.1898407 115.091978,33.2986861 115.497851,33.6928793 C115.903724,34.0870726 116.030163,34.6879416 115.817573,35.2122763 C115.604983,35.7366109 115.095793,36.0797657 114.53,36.08 C114.158538,36.1161202 113.789992,35.9870218 113.522266,35.7270002 C113.25454,35.4669786 113.114738,35.1023577 113.14,34.73 M112.43,34.73 C112.405055,35.2572221 112.59939,35.771264 112.966884,36.150123 C113.334377,36.528982 113.842263,36.7388801 114.37,36.73 C114.766885,36.7382355 115.154777,36.6112888 115.47,36.37 L113.71,38.6 L114.57,38.6 L115.79,36.98 C116.307504,36.3678552 116.606553,35.6008827 116.640001,34.8 C116.640554,34.2535989 116.417531,33.7307613 116.02276,33.3529906 C115.62799,32.9752198 115.095848,32.7754117 114.55,32.8 C113.999099,32.7668854 113.459001,32.9628875 113.057556,33.3416093 C112.656111,33.720331 112.429006,34.2481058 112.43,34.8 M109.72,32.92 L108.08,33.77 L108.08,34.46 L109.6,33.68 L109.6,38.68 L110.3,38.68 L110.3,32.83 L109.72,32.92 Z M93.24,37 L92.66,37.33 C93.0689066,38.2350104 94.0125045,38.7753613 95,38.67 C96.36,38.67 97.14,37.98 97.14,36.98 C97.14,36.21 96.67,35.71 95.55,35.44 L94.63,35.22 C93.87,35.04 93.63,34.76 93.63,34.32 C93.63,33.72 94.12,33.32 94.94,33.32 C95.5437306,33.2708719 96.1262919,33.5544873 96.46,34.06 L97.03,33.72 C96.5975503,32.997759 95.7879088,32.5890457 94.95,32.67 C93.68,32.67 92.89,33.34 92.89,34.28 C92.89,35.06 93.43,35.55 94.49,35.81 L95.41,36.03 C96.12,36.2 96.41,36.49 96.41,36.96 C96.41,37.43 95.9,37.96 95.03,37.96 C94.300107,38.0137232 93.6110285,37.617701 93.29,36.96 M90.88,32.79 L86.92,32.79 L86.92,38.51 L90.92,38.51 L90.92,37.85 L87.63,37.85 L87.63,36 L90.63,36 L90.63,35.34 L87.63,35.34 L87.63,33.5 L90.83,33.5 L90.88,32.79 Z M16.1,13 L16.1,19.11 C14.8897044,19.411845 13.647362,19.5662984 12.4,19.57 C7.16,19.57 3,16.71 3,10.65 C3,5.18 6.38,1.84 11.5,1.84 C14.4810206,1.77923069 17.302309,3.18426967 19.05,5.6 L18.12,0.84 C16.1237182,0.302383089 14.0673093,0.020130899 12,2.13162821e-14 C3.82,2.13162821e-14 0,5.51 0,11.17 C0,17.43 4.43,21.43 11,21.43 C12.9629463,21.4647822 14.9082772,21.0545191 16.69,20.23 L18.88,21.46 L18.88,13 L20.03,10.81 L14.73,10.81 L16.1,13 Z M40.69,11.11 L34.69,11.11 L37.69,4.11 L40.69,11.11 Z M43,21.16 L49,21.16 L47.17,19 L39,0.39 L35.64,0.39 L36.81,2.53 L29.08,19.05 L27.18,21.16 L32.54,21.16 L31.15,19.26 L34,12.73 L41.44,12.73 L44.24,19.23 L43,21.16 Z M61.27,16.31 L61.27,2.59 L62.58,0.39 L57,0.39 L58.35,2.59 L58.35,18.9 L57,21.16 L70.61,21.16 L71.79,17.94 C68.3466819,18.6873828 64.854519,19.1886502 61.34,19.44 C61.25,18.54 61.22,17.52 61.22,16.31 M95.69,10.75 C95.69,15.95 92.69,19.29 86.12,19.35 L83.69,19.35 C83.6,18.45 83.57,17.46 83.57,16.28 L83.57,5.24 C83.57,4.24 83.57,3.19 83.65,2.24 L86.12,2.24 C92.6,2.24 95.69,5.34 95.69,10.79 M98.69,10.57 C98.71,4.27 94.37,0.39 86.42,0.39 L79.42,0.39 L80.78,2.59 L80.78,18.9 L79.42,21.16 L86.42,21.16 C94.61,21.16 98.71,16.64 98.71,10.53 M101.05,33.53 L103,33.53 L103,32.86 L98.42,32.86 L98.42,33.53 L100.33,33.53 L100.33,38.53 L101.05,38.53 L101.05,33.53 Z M104.43,38.15 C104.435981,38.019185 104.385925,37.8920214 104.292379,37.8003841 C104.198832,37.7087468 104.070664,37.661323 103.94,37.67 C103.808487,37.6579289 103.67831,37.704238 103.583968,37.796655 C103.489626,37.8890719 103.440643,38.0182662 103.45,38.15 C103.437964,38.2841647 103.485339,38.4168634 103.579622,38.5130704 C103.673905,38.6092774 103.80562,38.6593238 103.94,38.65 C104.073464,38.655966 104.20316,38.6048521 104.296669,38.5094353 C104.390177,38.4140185 104.438661,38.2833161 104.43,38.15 M111.83,16.34 L111.83,10.9 C114.83,10.96 118.75,11.14 121.46,11.44 L121,9.3 L111.82,9.45 L111.82,5.24 C111.82,4.24 111.82,3.1 111.91,2.05 C115.365948,2.22466603 118.799493,2.70656712 122.17,3.49 L121,0.39 L107.64,0.39 L109,2.59 L109,18.9 L107.64,21.16 L121.31,21.16 L122.48,17.91 C119.037274,18.720997 115.530891,19.2329022 112,19.44 C111.91,18.54 111.88,17.52 111.88,16.31 M125.61,38.55 L126.32,38.55 L126.32,32.83 L125.74,32.83 L124.09,33.68 L124.09,34.37 L125.61,33.59 L125.61,38.55 Z M137.32,10.9000026 L136.18,10.9000026 L136.18,5.24 C136.18,4.24 136.18,3.07 136.3,2.02 L138.62,2.02 C143.07,2.02 145.06,3.34 145.06,6.44 C145.06,10.93 140.42,10.9000026 137.32,10.9000026 M151.41,21.16 L139.88,12.22 C145.27,11.92 148.04,9.66 148.04,6.32 C148.04,2.5 144.94,0.39 138.56,0.39 L132,0.39 L133.36,2.59 L133.36,18.9 L132,21.16 L137.51,21.16 L136.16,18.9 L136.16,11.9 L146.87,21.14 L151.41,21.16 Z M182.66,19 L181.46,2.63 L182.69,0.43 L178.45,0.43 L178.57,2.24 L171.38,17 L163.38,0.35 L160,0.35 L161.59,3.51 L160.18,18.77 L158.18,21.12 L163.75,21.12 L162.25,19 L163,6.32 L170.76,21.76 L171.15,21.76 L178.78,5.6 L179.65,19 L178.15,21.2 L184.23,21.2 L182.66,19 Z M204.85,11.15 L198.85,11.15 L201.85,4.15 L204.85,11.15 Z M213.18,21.2 L211.32,19 L203.16,0.39 L199.79,0.39 L201,2.53 L193.27,19.05 L191.37,21.16 L196.73,21.16 L195.34,19.26 L198.14,12.73 L205.58,12.73 L208.38,19.23 L207.14,21.16 L213.18,21.2 Z" id="Shape" fill="#FFFFFF" fill-rule="nonzero"></path>
    </g>
</svg>